<?xml version="1.0" standalone="no"?>
<!DOCTYPE svg PUBLIC "-//W3C//DTD SVG 20010904//EN"
 "http://www.w3.org/TR/2001/REC-SVG-20010904/DTD/svg10.dtd">
<svg version="1.0" xmlns="http://www.w3.org/2000/svg"
 width="192.000000pt" height="192.000000pt" viewBox="0 0 192.000000 192.000000"
 preserveAspectRatio="xMidYMid meet">
<metadata>
Created by potrace 1.16, written by Peter Selinger 2001-2019
</metadata>
<g transform="translate(0.000000,192.000000) scale(0.100000,-0.100000)"
fill="#A18348" stroke="none">
<path d="M933 1498 c-34 -37 -126 -179 -152 -235 l-23 -51 -53 24 c-100 46
-385 98 -409 74 -22 -22 40 -292 89 -389 l24 -49 -42 -16 c-54 -20 -177 -102
-242 -161 l-50 -45 40 -35 c119 -105 270 -188 373 -206 63 -11 143 -1 189 24
19 10 10 12 -60 12 -72 0 -90 4 -149 32 -95 45 -248 153 -248 175 0 15 160
127 228 160 61 30 76 33 157 33 126 0 159 -20 350 -205 126 -122 165 -154 227
-184 130 -65 250 -65 383 -2 78 38 172 101 236 160 l42 40 -34 29 c-72 62
-157 121 -221 153 l-67 34 30 65 c36 81 67 205 75 309 l7 79 -79 -7 c-109 -10
-238 -39 -308 -70 -33 -15 -60 -25 -61 -24 -1 2 -10 19 -20 38 -38 76 -183
260 -205 260 -3 0 -16 -10 -27 -22z m86 -179 c110 -131 170 -271 156 -362 -10
-68 -60 -157 -128 -232 l-64 -70 -80 76 c-47 43 -110 91 -150 111 -75 40 -182
64 -243 54 l-39 -6 -21 57 c-26 68 -67 259 -58 268 11 11 199 -16 271 -38 l68
-22 2 -90 c2 -66 7 -102 22 -134 l20 -43 0 99 c0 97 1 102 42 185 44 88 126
208 142 208 5 0 32 -28 60 -61z m511 -128 c0 -46 -30 -189 -51 -246 l-20 -53
-58 5 c-55 5 -163 -16 -175 -35 -2 -4 26 -6 62 -4 105 6 208 -38 351 -152 l64
-50 -49 -44 c-106 -94 -253 -162 -349 -162 -69 0 -153 42 -239 121 l-66 61 69
78 c116 135 156 235 150 377 l-4 76 40 14 c52 18 178 41 233 42 40 1 42 0 42
-28z"/>
</g>
</svg>
